<svg xmlns="http://www.w3.org/2000/svg" xmlns:xlink="http://www.w3.org/1999/xlink" width="30" height="27" viewBox="0 0 30 27"><defs><path id="a" d="M1121.99 91.07c-.1 2.24-.77 4.03-2 5.36a6.4 6.4 0 0 1-4.93 2c-.84 0-1.59-.16-2.23-.46a3.54 3.54 0 0 1-1.51-1.3 5.14 5.14 0 0 1-4.05 1.7 4.6 4.6 0 0 1-2.59-.72 4.2 4.2 0 0 1-1.62-2.07 6.3 6.3 0 0 1-.32-3.04 8.69 8.69 0 0 1 2.48-5.18c1.35-1.3 3-1.96 4.94-1.96 1.51 0 2.81.3 3.9.88l.97.54-.79 7.56c-.17 1.2.32 1.8 1.48 1.8.87 0 1.6-.47 2.2-1.4.59-.94.91-2.13.97-3.58.18-2.87-.53-5.08-2.13-6.65-1.6-1.56-3.93-2.34-7.01-2.34-1.96 0-3.7.42-5.23 1.26a9.28 9.28 0 0 0-3.62 3.55 11.62 11.62 0 0 0-1.5 5.24c-.16 3 .56 5.3 2.16 6.9 1.6 1.59 4 2.38 7.2 2.38.86 0 1.78-.08 2.74-.25.97-.17 1.75-.36 2.36-.58l.57 2.13c-.63.35-1.47.62-2.53.83-1.07.22-2.13.32-3.2.32-2.8 0-5.17-.45-7.1-1.35a9.06 9.06 0 0 1-4.32-3.98 12.28 12.28 0 0 1-1.27-6.4c.13-2.37.78-4.5 1.97-6.37a11.92 11.92 0 0 1 4.86-4.36 15.4 15.4 0 0 1 6.97-1.53c2.59 0 4.82.44 6.7 1.34a9.29 9.29 0 0 1 4.23 3.87 10.64 10.64 0 0 1 1.25 5.86zm-15.4 1.47c-.11 1.12 0 1.96.32 2.53.32.57.84.86 1.56.86.48 0 .93-.18 1.33-.54.4-.36.74-.88 1.01-1.55l.62-5.87c-.31-.07-.63-.1-.96-.1-1.15 0-2.03.37-2.65 1.12-.63.75-1.03 1.94-1.23 3.55z"/></defs><g transform="translate(-1094 -78)"><use fill="#fff" xlink:href="#a"/></g></svg>