<svg xmlns="http://www.w3.org/2000/svg" xmlns:xlink="http://www.w3.org/1999/xlink" width="35" height="29" viewBox="0 0 35 29"><defs><path fill="#fff" id="a" d="M1222.07 81.76v4.81c0 .4-.34.74-.75.74a.75.75 0 0 1-.76-.74v-4.81a.29.29 0 0 0-.3-.29h-21.46c-.16 0-.29.13-.29.29V94.3c0 .15.13.28.3.28h2.14c.4 0 .72.3.75.67v3.7l4.26-4.15c.14-.14.31-.2.49-.22h1.43c.42 0 .75.33.75.74 0 .4-.33.73-.75.73h-1.07l-5.33 5.2a.76.76 0 0 1-.82.15.74.74 0 0 1-.47-.68v-4.67h-1.39c-1 0-1.8-.79-1.8-1.75V81.76c0-.97.8-1.76 1.8-1.76h21.47c1 0 1.8.79 1.8 1.76zm6.93 9v8.55c0 .97-.8 1.76-1.8 1.76h-.52v3.2c0 .3-.18.56-.47.67a.77.77 0 0 1-.82-.16l-3.81-3.7h-9.4c-1 0-1.81-.8-1.81-1.77v-8.56c0-.96.8-1.75 1.8-1.75h15.03c1 0 1.8.79 1.8 1.75zm-1.51 0a.29.29 0 0 0-.3-.3h-15.02c-.16 0-.29.14-.29.3v8.55c0 .16.13.29.3.29h9.71a.76.76 0 0 1 .53.2v.02l2.75 2.67v-2.21a.75.75 0 0 1 .75-.68h1.28c.16 0 .29-.13.29-.29zm-7.49 4.22a1 1 0 0 1-2.01 0 1 1 0 0 1 2.01 0zm-3-9.5c0 .83-.33 1.5-.74 1.5h-13.51c-.41 0-.75-.67-.75-1.5s.34-1.5.75-1.5h13.51c.41 0 .74.67.74 1.5zm-7.99 5.04c0 .83-.35 1.5-.79 1.5h-5.43c-.43 0-.79-.67-.79-1.5s.36-1.5.8-1.5h5.42c.44 0 .79.67.79 1.5zm6.98 4.46a1 1 0 0 1-2.01 0 1 1 0 0 1 2.01 0zm8.02 0a1 1 0 0 1-2.01 0 1 1 0 0 1 2.01 0z"/></defs><g transform="translate(-1195 -78)"><use fill="#c36a6a" xlink:href="#a"/></g></svg>