<svg xmlns="http://www.w3.org/2000/svg" xmlns:xlink="http://www.w3.org/1999/xlink" width="53" height="51" viewBox="0 0 53 51"><defs><path fill="#fff" id="a"  d="M262 454a4 4 0 0 1 4-4h4a4 4 0 0 1 4 4v4h-12zm14 0a4 4 0 0 1 4-4h4a4 4 0 0 1 4 4v4h-12zm14 0a4 4 0 0 1 4-4h4a4 4 0 0 1 4 4v4h-12zm-25-9a3 3 0 0 1 3-3h4a3 3 0 0 1 3 3v3h-10zm12.19 0a3 3 0 0 1 3-3h3.63a3 3 0 0 1 3 3v3h-9.63zm11.81 0a3 3 0 0 1 3-3h4a3 3 0 0 1 3 3v3h-10zm16-5v-28h-46v28h-2v-30h50v30zm-10 0v-12h8v12zm2-4a2 2 0 1 0 4 0 2 2 0 0 0-4 0zm1-5a1 1 0 1 0 2 0 1 1 0 0 0-2 0zm-37 9v-12h8v12zm2-4a2 2 0 1 0 4 0 2 2 0 0 0-4 0zm1-5a1 1 0 1 0 2 0 1 1 0 0 0-2 0z"/></defs><g transform="translate(-255 -408)"><use fill="#c36a6a" xlink:href="#a"/></g></svg>