<svg xmlns="http://www.w3.org/2000/svg" xmlns:xlink="http://www.w3.org/1999/xlink" width="53" height="46" viewBox="0 0 53 46"><defs><path fill="#fff" id="a" d="M1105 410v8h3v2a2 2 0 0 1-2 2h-2a2 2 0 0 1-2-2 2 2 0 0 1-2 2h-2a2 2 0 0 1-2-2 2 2 0 0 1-2 2h-2a2 2 0 0 1-2-2 2 2 0 0 1-2 2h-2a2 2 0 0 1-2-2 2 2 0 0 1-2 2h-2a2 2 0 0 1-2-2 2 2 0 0 1-2 2h-2a2 2 0 0 1-2-2 2 2 0 0 1-2 2h-2a2 2 0 0 1-2-2 2 2 0 0 1-2 2h-2a2 2 0 0 1-2-2v-2h3v-8zm-1 31v-17h2v17zm-42 0v-17h2v17zm3-29v4h38v-4zm-6 42v-12h20v12zm18-2v-8h-2v8zm-4 0v-8h-2v8zm-4 0v-8h-2v8zm-4 0v-8h-2v8zm24 2v-12h20v12zm4-2v-8h-2v8zm4 0v-8h-2v8zm4 0v-8h-2v8zm4 0v-8h-2v8z"/></defs><g transform="translate(-1057 -409)"><use fill="#c36a6a" xlink:href="#a"/></g></svg>