<svg xmlns="http://www.w3.org/2000/svg" xmlns:xlink="http://www.w3.org/1999/xlink" width="53" height="53" viewBox="0 0 53 53"><defs><path fill="#fff" id="a"  d="M272.62 709.65L275 716h-8l2.38-6.35a4 4 0 1 1 3.24 0zM293 692a5.97 5.97 0 0 1-4-1.54V705h4v2h-4v2h4v2h-4v2h-2v-22.54a6 6 0 1 1-2.82-10.35c-.1-.35-.18-.72-.18-1.11a4 4 0 1 1 7.82 1.12A6 6 0 1 1 293 692zm-10-10a4 4 0 1 0 0 8 4 4 0 0 0 0-8zm10 0a4 4 0 1 0 0 8 4 4 0 0 0 0-8zm-36 43v-40h18v2h-16v36h46v-36h-4v-2h6v40z"/></defs><g transform="translate(-255 -673)"><use fill="#c36a6a" xlink:href="#a"/></g></svg>