<svg xmlns="http://www.w3.org/2000/svg" xmlns:xlink="http://www.w3.org/1999/xlink" width="53" height="47" viewBox="0 0 53 47"><defs><path id="a" fill="#fff"  d="M704 688h-42v2-2h2s9.48-5 18.98-5a2 2 0 1 1 .04 0c9.5 0 18.98 5 18.98 5zm-46 31a4 4 0 0 1 4-4h4a4 4 0 0 1 4 4 4 4 0 0 1 4-4h4a4 4 0 0 1 4 4v4h-24zm26 0a4 4 0 0 1 4-4h4a4 4 0 0 1 4 4 4 4 0 0 1 4-4h4a4 4 0 0 1 4 4v4h-24zm19-6v-17h2v17zm-42 0v-17h2v17zm-2-23h48v2a2 2 0 0 1-2 2h-2a2 2 0 0 1-2-2 2 2 0 0 1-2 2h-2a2 2 0 0 1-2-2 2 2 0 0 1-2 2h-2a2 2 0 0 1-2-2 2 2 0 0 1-2 2h-2a2 2 0 0 1-2-2 2 2 0 0 1-2 2h-2a2 2 0 0 1-2-2 2 2 0 0 1-2 2h-2a2 2 0 0 1-2-2 2 2 0 0 1-2 2h-2a2 2 0 0 1-2-2 2 2 0 0 1-2 2h-2a2 2 0 0 1-2-2z"/></defs><g transform="translate(-656 -677)"><use fill="#c36a6a" xlink:href="#a"/></g></svg>