<svg xmlns="http://www.w3.org/2000/svg" xmlns:xlink="http://www.w3.org/1999/xlink" width="53" height="53" viewBox="0 0 53 53"><defs><path id="a" fill="#fff" d="M1093 675c4.42 0 8 3.7 8 8.25 0 4.56-8 13.75-8 13.75s-8-9.2-8-13.75a8.13 8.13 0 0 1 8-8.25zm-4 8.25c0 2.28 1.8 4.12 4 4.12s4-1.84 4-4.12c0-2.28-1.8-4.13-4-4.13s-4 1.85-4 4.13zM1059 725v-40h24v2h-22v36h46v-36h-4v-2h6v40zm16-28a4 4 0 0 1 3.77 5.33A5.99 5.99 0 0 1 1075 713a6 6 0 0 1-3.77-10.67A4 4 0 0 1 1075 697zm-1 20v-4h2v4z"/></defs><g transform="translate(-1057 -673)"><use fill="#c36a6a" xlink:href="#a"/></g></svg>